<?xml version="1.0" standalone="no"?>
<!DOCTYPE svg PUBLIC "-//W3C//DTD SVG 20010904//EN"
 "http://www.w3.org/TR/2001/REC-SVG-20010904/DTD/svg10.dtd">
<svg version="1.0" xmlns="http://www.w3.org/2000/svg"
 width="902.000000pt" height="175.000000pt" viewBox="0 0 902.000000 175.000000"
 preserveAspectRatio="xMidYMid meet">

<g transform="translate(0.000000,175.000000) scale(0.100000,-0.100000)"
fill="#000000" stroke="none">
<path d="M5430 1358 c-22 -17 -34 -19 -92 -13 -65 6 -69 5 -124 -30 -48 -31
-207 -175 -192 -175 26 0 77 31 110 66 55 59 93 80 159 88 43 6 69 3 112 -13
l56 -19 -1 44 c0 25 -5 44 -12 44 -6 0 -4 4 4 10 8 5 12 11 10 14 -3 2 -16 -5
-30 -16z"/>
<path d="M5536 1255 l-39 -11 44 -17 c25 -9 50 -17 57 -17 18 0 15 25 -5 42
-15 12 -25 13 -57 3z"/>
<path d="M4886 1172 c-6 -10 62 -42 89 -42 28 0 15 17 -22 29 -21 7 -43 14
-50 17 -6 3 -14 1 -17 -4z"/>
<path d="M6080 1045 c0 -9 -9 -30 -21 -46 -25 -35 -20 -45 27 -52 46 -8 64
-23 64 -54 0 -14 6 -37 14 -51 8 -15 22 -53 31 -84 9 -32 23 -58 30 -58 7 0
18 -7 25 -15 7 -8 16 -12 22 -9 5 3 4 12 -3 21 -10 12 -10 16 1 23 11 7 10 11
-3 25 -10 9 -17 25 -17 35 0 10 -7 26 -16 34 -9 10 -13 24 -9 35 4 14 0 23
-15 31 -11 6 -18 15 -15 19 3 5 -15 31 -40 59 -25 27 -45 57 -45 65 0 8 -7 20
-15 27 -12 10 -15 9 -15 -5z"/>
<path d="M5520 978 c0 -42 5 -53 47 -100 26 -29 53 -59 60 -66 7 -7 13 -18 13
-23 0 -5 11 -9 25 -9 34 0 34 2 -20 -85 -11 -16 -19 -37 -20 -45 0 -8 -6 -14
-13 -12 -7 1 -22 -2 -32 -8 -25 -13 -72 7 -49 20 7 5 17 6 21 4 7 -4 28 36 28
52 0 2 -14 13 -31 23 -35 21 -59 18 -59 -8 0 -13 2 -13 9 -3 5 8 17 12 27 10
15 -2 11 -8 -18 -25 -31 -18 -38 -20 -49 -7 -15 19 -29 18 -29 -2 0 -8 31 -45
70 -82 l70 -66 -37 -33 c-20 -18 -38 -31 -41 -29 -2 3 -14 -1 -26 -9 -30 -22
-35 -19 -42 25 -8 52 -17 57 -44 23 -12 -15 -33 -35 -46 -44 l-25 -16 47 -36
c48 -37 48 -41 6 -37 -27 2 -75 -27 -67 -40 3 -5 1 -11 -5 -15 -14 -9 -13 -25
2 -25 7 0 28 -11 47 -24 20 -14 50 -26 66 -28 26 -3 30 1 33 22 2 19 0 21 -7
11 -7 -12 -14 -9 -34 15 -14 16 -25 29 -24 30 1 0 23 -1 49 -4 42 -4 47 -7 53
-33 4 -16 10 -29 14 -29 14 0 51 32 51 44 0 24 38 49 66 43 22 -4 28 0 39 26
12 29 17 31 54 28 28 -2 41 2 41 10 0 29 30 47 70 42 33 -5 40 -2 55 21 14 20
25 26 55 26 25 0 40 5 44 16 10 26 7 57 -8 73 -13 14 -12 19 3 40 15 20 21 22
39 12 11 -6 39 -11 61 -11 37 0 40 3 52 37 11 34 10 38 -12 55 -13 10 -35 29
-49 41 -39 36 -133 103 -153 110 -20 7 -97 -27 -97 -43 0 -16 -22 -11 -36 8
-12 16 -13 15 -8 -4 11 -44 -15 -33 -32 13 -17 45 -80 121 -96 116 -3 -2 -19
4 -34 12 -15 8 -32 12 -36 8 -5 -3 -16 3 -23 13 -13 17 -14 14 -15 -28z m260
-298 c0 -5 -4 -10 -10 -10 -5 0 -10 5 -10 10 0 6 5 10 10 10 6 0 10 -4 10 -10z
m-190 -81 c0 -6 -4 -7 -10 -4 -5 3 -10 11 -10 16 0 6 5 7 10 4 6 -3 10 -11 10
-16z m130 -19 c0 -5 -5 -10 -11 -10 -5 0 -7 5 -4 10 3 6 8 10 11 10 2 0 4 -4
4 -10z m80 -64 c0 -8 -4 -18 -10 -21 -5 -3 -10 3 -10 14 0 12 5 21 10 21 6 0
10 -6 10 -14z m-180 -26 c0 -5 -5 -10 -11 -10 -5 0 -7 5 -4 10 3 6 8 10 11 10
2 0 4 -4 4 -10z"/>
<path d="M7045 990 c-4 -6 -23 -8 -43 -6 -20 3 -29 3 -19 0 18 -6 18 -6 0 -27
-13 -15 -14 -19 -3 -15 113 42 139 58 98 58 -15 0 -30 -5 -33 -10z"/>
<path d="M432 863 l-2 -123 50 0 c28 0 50 5 50 10 0 6 -20 10 -45 10 l-44 0
-4 113 -3 112 -2 -122z"/>
<path d="M780 934 c0 -45 0 -45 -22 -30 -34 24 -66 19 -99 -13 -37 -37 -38
-79 -3 -120 30 -35 76 -42 106 -14 11 9 18 11 18 5 0 -7 5 -12 10 -12 6 0 10
45 10 115 0 70 -4 115 -10 115 -5 0 -10 -21 -10 -46z m-25 -49 c64 -63 -9
-169 -78 -114 -36 28 -37 80 -2 114 13 14 31 25 40 25 9 0 27 -11 40 -25z"/>
<path d="M994 860 c-1 -69 1 -109 3 -90 7 63 11 64 58 13 24 -26 44 -43 45
-37 0 5 -16 25 -35 44 -19 19 -35 38 -35 44 0 6 14 25 32 43 18 18 27 33 22
33 -6 0 -23 -13 -39 -30 -16 -16 -32 -30 -36 -30 -5 0 -10 30 -12 68 -2 37 -3
11 -3 -58z"/>
<path d="M1207 973 c-4 -3 -7 -11 -7 -17 0 -6 5 -5 12 2 6 6 9 14 7 17 -3 3
-9 2 -12 -2z"/>
<path d="M1415 960 c17 -19 19 -19 37 -3 21 19 16 32 -6 14 -10 -8 -16 -9 -21
-1 -3 5 -11 10 -17 10 -6 0 -3 -9 7 -20z"/>
<path d="M1721 963 c7 -10 15 -20 16 -22 4 -7 33 21 33 31 0 6 -7 4 -17 -3
-13 -11 -17 -11 -20 -1 -3 6 -9 12 -15 12 -6 0 -5 -7 3 -17z"/>
<path d="M2223 965 c-9 -24 1 -27 15 -5 8 13 8 20 2 20 -6 0 -13 -7 -17 -15z"/>
<path d="M6820 970 c0 -5 7 -10 15 -10 8 0 15 5 15 10 0 6 -7 10 -15 10 -8 0
-15 -4 -15 -10z"/>
<path d="M575 960 c3 -5 8 -10 11 -10 2 0 4 5 4 10 0 6 -5 10 -11 10 -5 0 -7
-4 -4 -10z"/>
<path d="M856 901 c-22 -25 -12 -46 35 -73 27 -15 39 -29 39 -44 0 -28 -37
-38 -67 -18 -24 15 -31 6 -11 -14 18 -18 63 -14 82 7 25 28 12 57 -35 81 -42
22 -49 40 -23 61 12 10 20 10 35 1 26 -16 34 -15 19 3 -17 21 -53 19 -74 -4z"/>
<path d="M1165 909 c-16 -8 -15 -8 9 -4 35 7 76 -18 76 -46 0 -17 -4 -19 -35
-13 -68 12 -112 -48 -66 -90 13 -12 32 -16 65 -14 l46 3 0 72 c0 63 -3 74 -22
87 -25 18 -44 19 -73 5z m69 -85 c23 -22 20 -41 -9 -60 -34 -22 -75 -6 -75 30
0 41 54 61 84 30z"/>
<path d="M1437 903 c-11 -11 -17 -13 -17 -5 0 7 -4 12 -10 12 -6 0 -10 -33
-10 -80 0 -47 4 -80 10 -80 6 0 10 27 10 60 0 53 3 64 26 85 15 14 23 25 18
25 -6 0 -17 -8 -27 -17z"/>
<path d="M1540 907 c-53 -27 -64 -89 -24 -136 20 -24 34 -31 63 -31 20 0 42 5
49 12 21 21 13 27 -15 13 -42 -22 -103 6 -103 47 0 16 9 18 76 18 73 0 75 1
69 23 -16 51 -71 77 -115 54z m75 -22 c38 -37 32 -45 -40 -45 -73 0 -84 14
-39 49 34 27 50 26 79 -4z"/>
<path d="M1705 907 c-27 -21 -13 -58 32 -82 44 -23 53 -49 23 -65 -17 -9 -26
-8 -46 5 -13 8 -24 12 -24 7 0 -16 25 -32 50 -32 62 0 69 58 10 95 -41 26 -53
58 -24 69 8 3 24 1 34 -4 28 -15 38 -11 16 5 -25 19 -47 19 -71 2z"/>
<path d="M1870 907 c-80 -40 -49 -167 40 -167 24 0 43 7 55 20 22 24 13 26
-19 5 -29 -20 -71 -11 -91 18 -28 41 -20 47 60 47 41 0 75 2 75 4 0 23 -26 66
-46 75 -31 14 -43 14 -74 -2z m74 -18 c45 -35 34 -49 -39 -49 -72 0 -78 8 -40
45 29 30 45 31 79 4z"/>
<path d="M2067 909 c-9 -5 -22 -7 -27 -4 -6 4 -9 -24 -8 -77 l1 -83 7 60 c3
33 10 68 14 77 11 23 41 32 66 18 17 -9 20 -21 20 -80 0 -38 5 -72 10 -75 6
-4 10 21 10 69 0 66 -3 77 -22 90 -26 18 -46 20 -71 5z"/>
<path d="M580 908 c-5 -27 -3 -158 3 -158 4 0 7 36 7 80 0 44 -2 80 -5 80 -3
0 -5 -1 -5 -2z"/>
<path d="M2210 831 c0 -44 5 -83 10 -86 6 -4 10 25 10 79 0 51 -4 86 -10 86
-6 0 -10 -33 -10 -79z"/>
<path d="M6568 904 c-3 -3 3 -23 14 -45 11 -23 17 -47 14 -54 -3 -8 0 -16 7
-18 7 -3 0 -8 -15 -12 -23 -6 -40 -25 -23 -25 20 0 75 31 70 40 -3 5 0 7 8 4
8 -3 18 -1 22 5 3 6 1 11 -6 11 -10 0 -10 3 -1 12 10 10 15 10 22 -2 5 -8 10
-10 10 -5 0 6 -12 21 -25 34 -14 12 -22 27 -19 32 3 5 -4 9 -15 9 -11 0 -23 5
-26 10 -7 11 -28 13 -37 4z"/>
<path d="M4440 893 c-8 -3 -25 -16 -39 -29 -22 -20 -23 -25 -10 -40 11 -13 11
-18 2 -21 -14 -5 -17 -42 -5 -58 4 -5 18 -11 30 -13 23 -2 24 0 17 45 -5 42
-3 50 15 61 30 18 35 9 24 -41 -13 -57 -8 -73 27 -87 16 -7 29 -19 29 -28 0
-13 2 -13 13 2 12 17 16 17 50 2 71 -29 88 3 32 61 -19 19 -42 55 -51 80 -23
60 -79 87 -134 66z"/>
<path d="M6555 817 c-4 -10 -5 -21 -1 -24 10 -10 18 4 13 24 -4 17 -4 17 -12
0z"/>
<path d="M4946 731 l-7 -80 -32 19 c-34 21 -57 26 -57 11 0 -5 -7 -25 -15 -45
-15 -34 -16 -35 -34 -18 -16 16 -17 19 -2 37 16 19 16 19 -12 1 -16 -10 -45
-20 -65 -22 -20 -3 -38 -7 -41 -10 -3 -3 14 -24 39 -47 25 -23 43 -48 42 -56
-2 -7 -1 -24 2 -36 5 -21 11 -22 68 -21 70 1 69 0 53 78 -6 31 -4 39 10 45 11
4 22 0 30 -10 10 -14 18 -10 63 36 29 29 52 58 52 65 0 6 9 17 20 24 11 7 20
19 20 26 0 7 -5 10 -11 6 -7 -4 -9 0 -5 12 8 26 -4 40 -39 47 -16 4 -40 9 -51
13 -20 5 -22 1 -28 -75z m87 15 c4 4 7 2 7 -4 0 -11 -19 -27 -24 -21 -2 2 -6
18 -10 34 -6 29 -6 29 7 7 7 -12 16 -19 20 -16z"/>
<path d="M4765 770 c-3 -5 -2 -10 4 -10 5 0 13 5 16 10 3 6 2 10 -4 10 -5 0
-13 -4 -16 -10z"/>
<path d="M7132 768 c-7 -7 -12 -39 -12 -74 0 -80 16 -94 110 -94 71 0 90 10
90 46 0 31 -20 41 -27 15 -5 -20 -11 -22 -72 -19 l-66 3 0 50 0 50 95 0 95 0
3 -67 c2 -52 6 -68 17 -68 12 0 15 16 15 73 0 43 -5 78 -12 85 -16 16 -220 16
-236 0z"/>
<path d="M7552 768 c-7 -7 -12 -37 -12 -70 l0 -57 -57 -3 c-44 -2 -58 -7 -58
-18 0 -19 78 -26 118 -11 25 10 27 15 27 63 0 29 4 58 8 65 4 6 28 13 52 15
25 2 44 8 43 13 -4 15 -106 18 -121 3z"/>
<path d="M7750 761 c-5 -11 -10 -42 -10 -70 l0 -50 -57 -3 c-44 -2 -58 -7 -58
-18 0 -19 78 -26 118 -11 25 10 27 15 27 63 0 29 4 58 8 65 4 6 27 13 51 15
71 5 64 28 -8 28 -49 0 -62 -3 -71 -19z"/>
<path d="M7922 768 c-7 -7 -12 -39 -12 -75 0 -87 13 -95 151 -91 85 2 104 6
104 18 0 12 -21 16 -110 20 l-110 5 0 50 0 50 98 3 c92 3 97 2 97 -18 0 -18
-6 -20 -80 -20 -64 0 -80 -3 -80 -15 0 -12 16 -15 83 -15 90 0 107 8 107 50 0
14 -5 31 -12 38 -16 16 -220 16 -236 0z"/>
<path d="M8222 768 c-7 -7 -12 -40 -12 -80 0 -65 1 -69 27 -79 14 -5 67 -8
117 -7 73 2 91 6 91 18 0 12 -19 16 -103 18 l-103 3 3 52 3 52 99 5 c67 3 101
9 104 18 5 17 -209 17 -226 0z"/>
<path d="M8502 768 c-14 -14 -16 -126 -2 -148 7 -11 34 -16 105 -18 130 -5
145 5 145 91 0 36 -5 68 -12 75 -16 16 -220 16 -236 0z m216 -75 l3 -53 -100
0 -101 0 0 48 c0 27 3 52 7 56 4 4 48 5 98 4 l90 -3 3 -52z"/>
<path d="M4705 729 c-11 -4 -15 -8 -10 -8 6 -1 3 -6 -5 -12 -11 -8 -12 -12 -2
-16 7 -2 19 -11 27 -20 19 -19 28 0 17 38 -6 21 -11 25 -27 18z"/>
<path d="M5150 690 c-11 -7 -8 -11 14 -20 20 -7 32 -8 40 0 5 5 19 11 31 11
14 1 11 4 -10 9 -43 11 -58 11 -75 0z"/>
<path d="M1100 635 c-7 -9 -11 -18 -8 -20 3 -3 11 1 18 10 7 9 11 18 8 20 -3
3 -11 -1 -18 -10z"/>
<path d="M1600 645 c0 -5 5 -17 10 -25 11 -17 40 -4 48 21 4 10 -1 9 -16 -4
-20 -18 -21 -18 -31 0 -6 10 -10 14 -11 8z"/>
<path d="M1760 644 c0 -14 21 -34 37 -34 7 0 18 10 24 23 12 21 11 21 -8 5
-18 -17 -20 -17 -36 -1 -9 10 -17 13 -17 7z"/>
<path d="M2132 630 c-7 -11 -8 -20 -2 -20 5 0 14 9 20 20 6 11 7 20 3 20 -5 0
-14 -9 -21 -20z"/>
<path d="M2887 642 c-5 -6 -8 -51 -8 -100 -1 -98 -13 -122 -61 -122 -63 0 -91
78 -43 125 27 28 37 30 67 14 23 -12 39 -2 18 11 -22 14 -72 11 -93 -4 -42
-32 -41 -113 1 -146 30 -24 60 -25 89 -5 16 11 22 12 26 2 12 -33 17 12 15
119 -2 66 -7 113 -11 106z"/>
<path d="M3208 644 c-12 -11 -10 -234 2 -234 6 0 10 19 10 42 l0 42 50 -49
c28 -27 50 -45 50 -40 0 5 -19 28 -42 52 l-42 43 43 36 c56 48 45 57 -13 9
l-45 -37 -3 72 c-2 40 -6 68 -10 64z"/>
<path d="M3420 630 c-6 -12 -9 -24 -7 -27 3 -2 11 5 17 17 6 12 9 24 7 27 -3
2 -11 -5 -17 -17z"/>
<path d="M3726 634 c-11 -28 -6 -38 9 -18 8 10 15 22 15 27 0 13 -18 7 -24 -9z"/>
<path d="M5153 643 c-8 -2 -11 -14 -8 -26 4 -18 -2 -25 -33 -39 -21 -10 -48
-27 -59 -38 -18 -16 -24 -17 -30 -6 -8 14 -56 29 -65 20 -3 -2 0 -21 7 -42 15
-42 12 -52 -16 -52 -28 0 -23 -13 11 -33 17 -10 30 -23 30 -28 0 -6 21 -33 47
-60 39 -42 52 -49 84 -49 20 0 39 4 41 10 2 6 15 4 31 -5 26 -13 31 -13 50 0
l22 15 -22 6 c-13 4 -23 10 -23 15 0 5 -9 9 -21 9 -13 0 -19 5 -16 13 78 180
78 182 70 212 -6 20 -16 31 -32 33 -18 3 -22 8 -18 28 3 19 0 24 -17 23 -11 0
-27 -3 -33 -6z"/>
<path d="M3136 631 c-4 -5 -2 -12 3 -15 5 -4 12 -2 15 3 4 5 2 12 -3 15 -5 4
-12 2 -15 -3z"/>
<path d="M428 574 c-10 -18 -7 -223 2 -229 6 -4 10 13 10 40 0 46 0 46 22 31
34 -24 66 -19 99 13 38 38 39 87 4 125 -26 28 -81 36 -103 14 -10 -10 -15 -10
-21 1 -5 7 -11 9 -13 5z m120 -24 c27 -25 30 -85 5 -112 -9 -10 -29 -18 -45
-18 -65 0 -94 88 -42 129 34 26 54 26 82 1z"/>
<path d="M630 496 c0 -51 4 -86 10 -86 6 0 10 28 10 64 0 59 2 66 28 85 20 15
23 20 10 21 -9 0 -20 -5 -23 -10 -5 -8 -11 -7 -21 1 -12 10 -14 -2 -14 -75z"/>
<path d="M746 554 c-37 -37 -35 -86 3 -125 45 -44 107 -35 136 21 46 90 -68
175 -139 104z m108 -5 c54 -43 23 -129 -47 -129 -68 0 -95 82 -43 127 33 28
56 29 90 2z"/>
<path d="M1028 574 c-13 -12 -9 -107 5 -134 18 -36 61 -49 87 -25 11 10 20 13
20 7 0 -7 5 -12 10 -12 6 0 10 35 10 85 0 50 -4 85 -10 85 -6 0 -10 -29 -10
-68 0 -75 -10 -92 -51 -92 -37 0 -43 12 -49 93 -3 38 -8 65 -12 61z"/>
<path d="M1215 564 c-9 -9 -14 -23 -11 -31 3 -8 6 -16 6 -19 0 -2 18 -13 41
-24 31 -16 40 -26 37 -43 -4 -26 -41 -35 -64 -16 -8 6 -17 9 -21 5 -10 -9 29
-35 53 -36 26 0 57 33 52 57 -2 10 -22 28 -46 41 -44 25 -52 41 -27 62 12 10
21 10 40 2 14 -7 25 -8 25 -3 0 24 -62 27 -85 5z"/>
<path d="M1352 460 c1 -69 3 -103 5 -77 2 27 7 47 11 45 4 -2 20 -10 35 -18
40 -20 78 -4 100 43 18 36 18 38 0 74 -22 46 -60 62 -105 45 -25 -9 -34 -9
-40 1 -4 6 -7 -44 -6 -113z m123 85 c47 -46 20 -125 -42 -125 -36 0 -49 9 -62
43 -14 36 -5 73 22 92 31 21 54 19 82 -10z"/>
<path d="M1571 556 c-28 -30 -31 -83 -8 -119 23 -35 78 -45 113 -22 14 9 23
19 20 23 -4 3 -12 0 -18 -6 -31 -31 -118 1 -118 43 0 12 15 15 75 15 66 0 75
2 75 19 0 10 -11 30 -25 45 -32 35 -83 36 -114 2z m99 -6 c37 -37 26 -50 -39
-50 -71 0 -85 14 -47 47 33 28 60 29 86 3z"/>
<path d="M1750 561 c-15 -28 -3 -49 41 -72 64 -32 44 -87 -22 -62 -32 13 -40
-1 -10 -17 30 -15 56 -12 75 9 26 29 16 53 -32 79 -45 25 -52 41 -26 63 12 10
20 10 35 1 26 -16 34 -15 19 3 -18 22 -67 19 -80 -4z"/>
<path d="M1892 495 l1 -90 7 69 c7 67 23 96 55 96 32 0 48 -29 55 -96 l7 -69
2 71 c1 57 -3 74 -17 87 -22 20 -63 22 -80 5 -10 -10 -15 -10 -22 2 -7 10 -9
-15 -8 -75z"/>
<path d="M2080 569 c-11 -7 -4 -8 23 -3 42 7 77 -14 77 -47 0 -14 -7 -16 -40
-12 -69 10 -104 -43 -59 -88 16 -16 28 -20 52 -15 18 4 38 7 45 8 19 2 16 132
-4 152 -17 18 -71 21 -94 5z m84 -85 c30 -30 12 -64 -34 -64 -29 0 -50 16 -50
40 0 38 55 54 84 24z"/>
<path d="M2330 460 c0 -73 4 -120 10 -120 6 0 10 21 10 46 0 45 0 45 22 30 71
-50 156 41 114 122 -23 45 -82 58 -118 25 -17 -15 -18 -15 -18 0 0 10 -4 17
-10 17 -6 0 -10 -47 -10 -120z m124 89 c52 -41 25 -129 -39 -129 -64 0 -91 88
-39 129 15 12 32 21 39 21 7 0 24 -9 39 -21z"/>
<path d="M2555 555 c-48 -47 -25 -135 40 -151 60 -15 124 50 109 111 -16 62
-104 86 -149 40z m118 -17 c23 -27 22 -59 -4 -92 -28 -36 -80 -36 -108 0 -24
30 -26 43 -10 78 22 48 86 56 122 14z"/>
<path d="M2950 495 c0 -50 4 -85 10 -85 6 0 10 28 10 63 0 49 4 68 18 80 46
42 82 6 82 -81 0 -35 4 -62 10 -62 13 0 13 101 0 134 -11 30 -51 43 -86 27
-15 -6 -24 -7 -24 -1 0 6 -4 10 -10 10 -6 0 -10 -35 -10 -85z"/>
<path d="M3138 573 c-2 -5 0 -44 3 -88 l5 -80 2 88 c2 78 -1 101 -10 80z"/>
<path d="M3373 573 c-7 -2 -13 -9 -13 -14 0 -5 11 -3 25 3 34 16 75 -3 75 -35
0 -20 -4 -22 -40 -19 -48 5 -70 -10 -70 -49 0 -41 37 -63 90 -54 l40 7 0 67
c0 53 -4 72 -18 84 -18 16 -63 21 -89 10z m68 -83 c28 -16 25 -58 -5 -66 -57
-14 -94 20 -62 55 21 23 38 26 67 11z"/>
<path d="M3532 495 c1 -49 3 -72 5 -50 7 84 14 106 37 116 17 8 30 8 45 0 18
-10 21 -21 21 -76 0 -35 5 -67 10 -70 6 -4 10 19 10 63 0 54 -4 72 -18 85 -22
20 -63 22 -80 5 -10 -10 -15 -10 -22 2 -7 10 -9 -15 -8 -75z"/>
<path d="M3710 495 c0 -50 4 -85 10 -85 6 0 10 35 10 85 0 50 -4 85 -10 85 -6
0 -10 -35 -10 -85z"/>
</g>
</svg>
